<?xml version="1.0" encoding="utf-8"?>
<!-- Svg Vector Icons : http://www.onlinewebfonts.com/icon -->
<!DOCTYPE svg PUBLIC "-//W3C//DTD SVG 1.1//EN" "http://www.w3.org/Graphics/SVG/1.1/DTD/svg11.dtd">
<svg version="1.1" xmlns="http://www.w3.org/2000/svg" xmlns:xlink="http://www.w3.org/1999/xlink" x="0px" y="0px" viewBox="0 0 1000 1000" enable-background="new 0 0 1000 1000" xml:space="preserve">
<metadata> Svg Vector Icons : http://www.onlinewebfonts.com/icon </metadata>
<g><path fill="green" d="M133.1,20.7c-14.3,0-27.8,5.1-38.8,15.9l-67.9,63.5c-21.9,21.5-21.9,57.8,0,79.3L352.9,500L26.4,820.6c-21.9,21.5-21.9,54.7,0,76.2l67.9,66.7c21.9,21.5,58.9,21.5,80.8,0L498.4,646l326.5,317.4c21.9,21.5,58.9,21.5,80.8,0l67.9-66.7c21.9-21.5,21.9-54.7,0-76.2L647.1,500l326.5-320.6c21.9-21.5,21.9-57.8,0-79.3l-67.9-63.5c-21.9-21.5-58.9-21.5-80.8,0L498.4,354L175.1,36.6C164.2,25.9,147.4,20.7,133.1,20.7z"/></g>
</svg>